<mxfile host="Electron" agent="Mozilla/5.0 (Windows NT 10.0; Win64; x64) AppleWebKit/537.36 (KHTML, like Gecko) draw.io/27.0.9 Chrome/134.0.6998.205 Electron/35.4.0 Safari/537.36" version="27.0.9">
  <diagram name="Page-1" id="GCxg4CPePT4O03we_kSc">
    <mxGraphModel dx="1426" dy="961" grid="1" gridSize="10" guides="1" tooltips="1" connect="1" arrows="1" fold="1" page="1" pageScale="1" pageWidth="850" pageHeight="1100" math="0" shadow="0">
      <root>
        <mxCell id="0" />
        <mxCell id="1" parent="0" />
        <mxCell id="0Hy7rbUaXcPB0iDyUKGK-1" value="1" style="ellipse;whiteSpace=wrap;html=1;aspect=fixed;fontFamily=Tahoma;fontSize=80;fontStyle=1;verticalAlign=middle;spacing=2;spacingBottom=6;strokeColor=none;" parent="1" vertex="1">
          <mxGeometry x="200" y="200" width="80" height="80" as="geometry" />
        </mxCell>
        <mxCell id="0Hy7rbUaXcPB0iDyUKGK-2" value="3" style="ellipse;whiteSpace=wrap;html=1;aspect=fixed;fontFamily=Tahoma;fontSize=80;fontStyle=1;verticalAlign=middle;spacing=2;spacingBottom=6;strokeColor=none;" parent="1" vertex="1">
          <mxGeometry x="440" y="200" width="80" height="80" as="geometry" />
        </mxCell>
        <mxCell id="0Hy7rbUaXcPB0iDyUKGK-3" value="2" style="ellipse;whiteSpace=wrap;html=1;aspect=fixed;fontFamily=Tahoma;fontSize=80;fontStyle=1;verticalAlign=middle;spacing=2;spacingBottom=6;strokeColor=none;" parent="1" vertex="1">
          <mxGeometry x="320" y="200" width="80" height="80" as="geometry" />
        </mxCell>
        <mxCell id="0Hy7rbUaXcPB0iDyUKGK-4" value="4" style="ellipse;whiteSpace=wrap;html=1;aspect=fixed;fontFamily=Tahoma;fontSize=80;fontStyle=1;verticalAlign=middle;spacing=2;spacingBottom=6;strokeColor=none;" parent="1" vertex="1">
          <mxGeometry x="560" y="200" width="80" height="80" as="geometry" />
        </mxCell>
        <mxCell id="0Hy7rbUaXcPB0iDyUKGK-5" value="6" style="ellipse;whiteSpace=wrap;html=1;aspect=fixed;fontFamily=Tahoma;fontSize=80;fontStyle=1;verticalAlign=middle;spacing=2;spacingBottom=6;strokeColor=none;" parent="1" vertex="1">
          <mxGeometry x="320" y="320" width="80" height="80" as="geometry" />
        </mxCell>
        <mxCell id="0Hy7rbUaXcPB0iDyUKGK-6" value="7" style="ellipse;whiteSpace=wrap;html=1;aspect=fixed;fontFamily=Tahoma;fontSize=80;fontStyle=1;verticalAlign=middle;spacing=2;spacingBottom=6;strokeColor=none;" parent="1" vertex="1">
          <mxGeometry x="440" y="320" width="80" height="80" as="geometry" />
        </mxCell>
        <mxCell id="0Hy7rbUaXcPB0iDyUKGK-8" value="8" style="ellipse;whiteSpace=wrap;html=1;aspect=fixed;fontFamily=Tahoma;fontSize=80;fontStyle=1;verticalAlign=middle;spacing=2;spacingBottom=6;strokeColor=none;" parent="1" vertex="1">
          <mxGeometry x="560" y="320" width="80" height="80" as="geometry" />
        </mxCell>
        <mxCell id="0Hy7rbUaXcPB0iDyUKGK-9" value="5" style="ellipse;whiteSpace=wrap;html=1;aspect=fixed;fontFamily=Tahoma;fontSize=80;fontStyle=1;verticalAlign=middle;spacing=2;spacingBottom=6;strokeColor=none;" parent="1" vertex="1">
          <mxGeometry x="200" y="320" width="80" height="80" as="geometry" />
        </mxCell>
      </root>
    </mxGraphModel>
  </diagram>
</mxfile>
